<svg width="371" height="84" viewBox="0 0 371 84" fill="none" xmlns="http://www.w3.org/2000/svg">
<g clip-path="url(#clip0_15_15)">
<path fill-rule="evenodd" clip-rule="evenodd" d="M5 26C4.448 26 4 26.448 4 27V61C4 61.552 4.448 62 5 62C5.552 62 6 61.552 6 61V27C6 26.448 5.552 26 5 26ZM22 34C22 35.103 22.897 36 24 36C25.103 36 26 35.103 26 34C26 32.897 25.103 32 24 32C22.897 32 22 32.897 22 34ZM18 43C18 43.552 18.448 44 19 44H25C25.265 44 25.52 43.895 25.707 43.707L32 37.414L34.293 39.707C34.684 40.098 35.316 40.098 35.707 39.707L40 35.414L44.293 39.707C44.684 40.098 45.316 40.098 45.707 39.707C46.098 39.316 46.098 38.684 45.707 38.293L40.707 33.293C40.316 32.902 39.684 32.902 39.293 33.293L35 37.586L32.707 35.293C32.316 34.902 31.684 34.902 31.293 35.293L24.586 42H20V30H48V42H31C30.448 42 30 42.448 30 43C30 43.552 30.448 44 31 44H49C49.552 44 50 43.552 50 43V29C50 28.448 49.552 28 49 28H19C18.448 28 18 28.448 18 29V43ZM47 60H37C36.448 60 36 60.448 36 61C36 61.552 36.448 62 37 62H47C47.552 62 48 61.552 48 61C48 60.448 47.552 60 47 60ZM19 62H29C29.552 62 30 61.552 30 61C30 60.448 29.552 60 29 60H19C18.448 60 18 60.448 18 61C18 61.552 18.448 62 19 62ZM47 54H37C36.448 54 36 54.448 36 55C36 55.552 36.448 56 37 56H47C47.552 56 48 55.552 48 55C48 54.448 47.552 54 47 54ZM19 56H31C31.552 56 32 55.552 32 55C32 54.448 31.552 54 31 54H19C18.448 54 18 54.448 18 55C18 55.552 18.448 56 19 56ZM50 49C50 48.448 49.552 48 49 48H37C36.448 48 36 48.448 36 49C36 49.552 36.448 50 37 50H49C49.552 50 50 49.552 50 49ZM49 24C49.552 24 50 23.552 50 23C50 22.448 49.552 22 49 22H45C44.448 22 44 22.448 44 23C44 23.552 44.448 24 45 24H49ZM19 24H35C35.552 24 36 23.552 36 23C36 22.448 35.552 22 35 22H19C18.448 22 18 22.448 18 23C18 23.552 18.448 24 19 24ZM19 50H29C29.552 50 30 49.552 30 49C30 48.448 29.552 48 29 48H19C18.448 48 18 48.448 18 49C18 49.552 18.448 50 19 50ZM60 17V63C60 68.551 56.551 72 51 72H9C3.449 72 0 68.551 0 63V25C0 22.243 2.243 20 5 20C5.552 20 6 20.448 6 21C6 21.552 5.552 22 5 22C3.346 22 2 23.346 2 25V63C2 67.449 4.551 70 9 70H51C55.449 70 58 67.449 58 63V17C58 15.346 56.654 14 55 14H13C11.402 14 10 15.402 10 17V65C10 65.552 9.552 66 9 66C8.448 66 8 65.552 8 65V17C8 14.29 10.29 12 13 12H55C57.757 12 60 14.243 60 17Z" fill="url(#paint0_linear_15_15)"/>
</g>
<line x1="93" y1="-4.37114e-08" x2="93" y2="84" stroke="url(#paint1_linear_15_15)" stroke-width="2"/>
<path d="M126.818 54V30.7273H129.636V41.0909H142.045V30.7273H144.864V54H142.045V43.5909H129.636V54H126.818ZM155.278 54.4091C154.172 54.4091 153.169 54.2008 152.267 53.7841C151.366 53.3598 150.65 52.75 150.119 51.9545C149.589 51.1515 149.324 50.1818 149.324 49.0455C149.324 48.0455 149.521 47.2348 149.915 46.6136C150.309 45.9848 150.835 45.4924 151.494 45.1364C152.153 44.7803 152.881 44.5152 153.676 44.3409C154.479 44.1591 155.286 44.0152 156.097 43.9091C157.157 43.7727 158.017 43.6705 158.676 43.6023C159.343 43.5265 159.828 43.4015 160.131 43.2273C160.441 43.053 160.597 42.75 160.597 42.3182V42.2273C160.597 41.1061 160.29 40.2348 159.676 39.6136C159.07 38.9924 158.15 38.6818 156.915 38.6818C155.634 38.6818 154.631 38.9621 153.903 39.5227C153.176 40.0833 152.665 40.6818 152.369 41.3182L149.824 40.4091C150.278 39.3485 150.884 38.5227 151.642 37.9318C152.407 37.3333 153.241 36.9167 154.142 36.6818C155.051 36.4394 155.945 36.3182 156.824 36.3182C157.384 36.3182 158.028 36.3864 158.756 36.5227C159.491 36.6515 160.199 36.9205 160.881 37.3295C161.57 37.7386 162.142 38.3561 162.597 39.1818C163.051 40.0076 163.278 41.1136 163.278 42.5V54H160.597V51.6364H160.46C160.278 52.0152 159.975 52.4205 159.551 52.8523C159.127 53.2841 158.563 53.6515 157.858 53.9545C157.153 54.2576 156.294 54.4091 155.278 54.4091ZM155.688 52C156.748 52 157.642 51.7917 158.369 51.375C159.104 50.9583 159.657 50.4205 160.028 49.7614C160.407 49.1023 160.597 48.4091 160.597 47.6818V45.2273C160.483 45.3636 160.233 45.4886 159.847 45.6023C159.468 45.7083 159.028 45.803 158.528 45.8864C158.036 45.9621 157.555 46.0303 157.085 46.0909C156.623 46.1439 156.248 46.1894 155.96 46.2273C155.263 46.3182 154.612 46.4659 154.006 46.6705C153.407 46.8674 152.922 47.1667 152.551 47.5682C152.188 47.9621 152.006 48.5 152.006 49.1818C152.006 50.1136 152.35 50.8182 153.04 51.2955C153.737 51.7652 154.619 52 155.688 52ZM168.173 60.5455V36.5455H170.764V39.3182H171.082C171.279 39.0152 171.552 38.6288 171.901 38.1591C172.257 37.6818 172.764 37.2576 173.423 36.8864C174.09 36.5076 174.991 36.3182 176.128 36.3182C177.598 36.3182 178.893 36.6856 180.014 37.4205C181.135 38.1553 182.01 39.197 182.639 40.5455C183.268 41.8939 183.582 43.4848 183.582 45.3182C183.582 47.1667 183.268 48.7689 182.639 50.125C182.01 51.4735 181.139 52.5189 180.026 53.2614C178.912 53.9962 177.628 54.3636 176.173 54.3636C175.052 54.3636 174.154 54.178 173.48 53.8068C172.806 53.428 172.287 53 171.923 52.5227C171.56 52.0379 171.279 51.6364 171.082 51.3182H170.855V60.5455H168.173ZM170.81 45.2727C170.81 46.5909 171.003 47.7538 171.389 48.7614C171.776 49.7614 172.34 50.5455 173.082 51.1136C173.825 51.6742 174.734 51.9545 175.81 51.9545C176.931 51.9545 177.866 51.6591 178.616 51.0682C179.374 50.4697 179.942 49.6667 180.321 48.6591C180.707 47.6439 180.901 46.5152 180.901 45.2727C180.901 44.0455 180.711 42.9394 180.332 41.9545C179.961 40.9621 179.397 40.178 178.639 39.6023C177.889 39.0189 176.946 38.7273 175.81 38.7273C174.719 38.7273 173.802 39.0038 173.06 39.5568C172.317 40.1023 171.757 40.8674 171.378 41.8523C170.999 42.8295 170.81 43.9697 170.81 45.2727ZM194.764 54.3636C193.188 54.3636 191.806 53.9886 190.616 53.2386C189.435 52.4886 188.51 51.4394 187.844 50.0909C187.185 48.7424 186.855 47.1667 186.855 45.3636C186.855 43.5455 187.185 41.9583 187.844 40.6023C188.51 39.2462 189.435 38.1932 190.616 37.4432C191.806 36.6932 193.188 36.3182 194.764 36.3182C196.34 36.3182 197.719 36.6932 198.901 37.4432C200.09 38.1932 201.014 39.2462 201.673 40.6023C202.34 41.9583 202.673 43.5455 202.673 45.3636C202.673 47.1667 202.34 48.7424 201.673 50.0909C201.014 51.4394 200.09 52.4886 198.901 53.2386C197.719 53.9886 196.34 54.3636 194.764 54.3636ZM194.764 51.9545C195.961 51.9545 196.946 51.6477 197.719 51.0341C198.491 50.4205 199.063 49.6136 199.435 48.6136C199.806 47.6136 199.991 46.5303 199.991 45.3636C199.991 44.197 199.806 43.1098 199.435 42.1023C199.063 41.0947 198.491 40.2803 197.719 39.6591C196.946 39.0379 195.961 38.7273 194.764 38.7273C193.567 38.7273 192.582 39.0379 191.81 39.6591C191.037 40.2803 190.465 41.0947 190.094 42.1023C189.723 43.1098 189.537 44.197 189.537 45.3636C189.537 46.5303 189.723 47.6136 190.094 48.6136C190.465 49.6136 191.037 50.4205 191.81 51.0341C192.582 51.6477 193.567 51.9545 194.764 51.9545ZM204.903 59V51.5H206.358C206.714 51.1288 207.021 50.7273 207.278 50.2955C207.536 49.8636 207.759 49.3523 207.949 48.7614C208.146 48.1629 208.313 47.4356 208.449 46.5795C208.585 45.7159 208.706 44.6742 208.812 43.4545L209.403 36.5455H220.494V51.5H223.176V59H220.494V54H207.585V59H204.903ZM209.403 51.5H217.812V39.0455H211.903L211.449 43.4545C211.259 45.2803 211.025 46.875 210.744 48.2386C210.464 49.6023 210.017 50.6894 209.403 51.5ZM238.418 44.0455V46.5455H228.781V44.0455H238.418ZM229.418 36.5455V54H226.736V36.5455H229.418ZM240.463 36.5455V54H237.781V36.5455H240.463ZM250.497 54.4091C249.391 54.4091 248.387 54.2008 247.486 53.7841C246.584 53.3598 245.868 52.75 245.338 51.9545C244.808 51.1515 244.543 50.1818 244.543 49.0455C244.543 48.0455 244.74 47.2348 245.134 46.6136C245.527 45.9848 246.054 45.4924 246.713 45.1364C247.372 44.7803 248.099 44.5152 248.895 44.3409C249.698 44.1591 250.505 44.0152 251.315 43.9091C252.376 43.7727 253.236 43.6705 253.895 43.6023C254.562 43.5265 255.046 43.4015 255.349 43.2273C255.66 43.053 255.815 42.75 255.815 42.3182V42.2273C255.815 41.1061 255.509 40.2348 254.895 39.6136C254.289 38.9924 253.368 38.6818 252.134 38.6818C250.853 38.6818 249.849 38.9621 249.122 39.5227C248.395 40.0833 247.884 40.6818 247.588 41.3182L245.043 40.4091C245.497 39.3485 246.103 38.5227 246.861 37.9318C247.626 37.3333 248.459 36.9167 249.361 36.6818C250.27 36.4394 251.164 36.3182 252.043 36.3182C252.603 36.3182 253.247 36.3864 253.974 36.5227C254.709 36.6515 255.418 36.9205 256.099 37.3295C256.789 37.7386 257.361 38.3561 257.815 39.1818C258.27 40.0076 258.497 41.1136 258.497 42.5V54H255.815V51.6364H255.679C255.497 52.0152 255.194 52.4205 254.77 52.8523C254.346 53.2841 253.781 53.6515 253.077 53.9545C252.372 54.2576 251.512 54.4091 250.497 54.4091ZM250.906 52C251.967 52 252.861 51.7917 253.588 51.375C254.323 50.9583 254.876 50.4205 255.247 49.7614C255.626 49.1023 255.815 48.4091 255.815 47.6818V45.2273C255.702 45.3636 255.452 45.4886 255.065 45.6023C254.687 45.7083 254.247 45.803 253.747 45.8864C253.255 45.9621 252.774 46.0303 252.304 46.0909C251.842 46.1439 251.467 46.1894 251.179 46.2273C250.482 46.3182 249.83 46.4659 249.224 46.6705C248.626 46.8674 248.141 47.1667 247.77 47.5682C247.406 47.9621 247.224 48.5 247.224 49.1818C247.224 50.1136 247.569 50.8182 248.259 51.2955C248.955 51.7652 249.838 52 250.906 52ZM270.756 59.6364V51.5H272.256C272.771 51.0303 273.256 50.3674 273.71 49.5114C274.172 48.6477 274.562 47.4962 274.881 46.0568C275.206 44.6098 275.422 42.7727 275.528 40.5455L276.028 30.7273H289.847V51.5H292.528V59.5909H289.847V54H273.438V59.6364H270.756ZM275.619 51.5H287.165V33.2273H278.574L278.21 40.5455C278.119 42.2424 277.96 43.7803 277.733 45.1591C277.506 46.5303 277.214 47.7462 276.858 48.8068C276.502 49.8598 276.089 50.7576 275.619 51.5ZM298.151 60.5455C297.696 60.5455 297.291 60.5076 296.935 60.4318C296.579 60.3636 296.332 60.2955 296.196 60.2273L296.878 57.8636C297.529 58.0303 298.105 58.0909 298.605 58.0455C299.105 58 299.548 57.7765 299.935 57.375C300.329 56.9811 300.688 56.3409 301.014 55.4545L301.514 54.0909L295.06 36.5455H297.969L302.787 50.4545H302.969L307.787 36.5455H310.696L303.287 56.5455C302.954 57.447 302.541 58.1932 302.048 58.7841C301.556 59.3826 300.984 59.8258 300.332 60.1136C299.688 60.4015 298.961 60.5455 298.151 60.5455ZM323.781 50.3636L329.872 36.5455H332.418L324.872 54H322.69L315.281 36.5455H317.781L323.781 50.3636ZM316.918 36.5455V54H314.236V36.5455H316.918ZM330.645 54V36.5455H333.327V54H330.645ZM338.236 54V36.5455H340.918V44.1364H342.69L348.963 36.5455H352.418L345.372 44.9545L352.509 54H349.054L343.327 46.6364H340.918V54H338.236ZM360.56 54.4091C359.454 54.4091 358.45 54.2008 357.548 53.7841C356.647 53.3598 355.931 52.75 355.401 51.9545C354.87 51.1515 354.605 50.1818 354.605 49.0455C354.605 48.0455 354.802 47.2348 355.196 46.6136C355.59 45.9848 356.116 45.4924 356.776 45.1364C357.435 44.7803 358.162 44.5152 358.957 44.3409C359.76 44.1591 360.567 44.0152 361.378 43.9091C362.438 43.7727 363.298 43.6705 363.957 43.6023C364.624 43.5265 365.109 43.4015 365.412 43.2273C365.723 43.053 365.878 42.75 365.878 42.3182V42.2273C365.878 41.1061 365.571 40.2348 364.957 39.6136C364.351 38.9924 363.431 38.6818 362.196 38.6818C360.916 38.6818 359.912 38.9621 359.185 39.5227C358.457 40.0833 357.946 40.6818 357.651 41.3182L355.105 40.4091C355.56 39.3485 356.166 38.5227 356.923 37.9318C357.688 37.3333 358.522 36.9167 359.423 36.6818C360.332 36.4394 361.226 36.3182 362.105 36.3182C362.666 36.3182 363.31 36.3864 364.037 36.5227C364.772 36.6515 365.48 36.9205 366.162 37.3295C366.851 37.7386 367.423 38.3561 367.878 39.1818C368.332 40.0076 368.56 41.1136 368.56 42.5V54H365.878V51.6364H365.741C365.56 52.0152 365.257 52.4205 364.832 52.8523C364.408 53.2841 363.844 53.6515 363.139 53.9545C362.435 54.2576 361.575 54.4091 360.56 54.4091ZM360.969 52C362.029 52 362.923 51.7917 363.651 51.375C364.385 50.9583 364.938 50.4205 365.31 49.7614C365.688 49.1023 365.878 48.4091 365.878 47.6818V45.2273C365.764 45.3636 365.514 45.4886 365.128 45.6023C364.749 45.7083 364.31 45.803 363.81 45.8864C363.317 45.9621 362.836 46.0303 362.366 46.0909C361.904 46.1439 361.529 46.1894 361.241 46.2273C360.545 46.3182 359.893 46.4659 359.287 46.6705C358.688 46.8674 358.204 47.1667 357.832 47.5682C357.469 47.9621 357.287 48.5 357.287 49.1818C357.287 50.1136 357.632 50.8182 358.321 51.2955C359.018 51.7652 359.901 52 360.969 52Z" fill="url(#paint2_linear_15_15)"/>
<defs>
<linearGradient id="paint0_linear_15_15" x1="0" y1="42" x2="60" y2="42" gradientUnits="userSpaceOnUse">
<stop stop-color="#4B6BFB"/>
<stop offset="1" stop-color="#8191DA"/>
</linearGradient>
<linearGradient id="paint1_linear_15_15" x1="91.5" y1="2.18557e-08" x2="91.5" y2="84" gradientUnits="userSpaceOnUse">
<stop stop-color="#4B6BFB"/>
<stop offset="1" stop-color="#8191DA"/>
</linearGradient>
<linearGradient id="paint2_linear_15_15" x1="124" y1="42.5" x2="371" y2="42.5" gradientUnits="userSpaceOnUse">
<stop stop-color="#4B6BFB"/>
<stop offset="1" stop-color="#8191DA"/>
</linearGradient>
<clipPath id="clip0_15_15">
<rect width="60" height="60" fill="white" transform="translate(0 12)"/>
</clipPath>
</defs>
</svg>
